<?xml version="1.0" encoding="UTF-8"?>
<svg id="NMgM_이미지" data-name="NMgM 이미지" xmlns="http://www.w3.org/2000/svg" xmlns:xlink="http://www.w3.org/1999/xlink" viewBox="0 0 68.48 26.94">
  <defs>
    <style>
      .cls-1 {
        fill: url(#_무제_그라디언트_147);
      }

      .cls-2 {
        fill: url(#_무제_그라디언트_132);
      }

      .cls-3 {
        fill: url(#_무제_그라디언트_131);
      }

      .cls-4 {
        fill: url(#_무제_그라디언트_144);
      }

      .cls-5 {
        fill: url(#_무제_그라디언트_77);
      }
    </style>
    <linearGradient id="_무제_그라디언트_77" data-name="무제 그라디언트 77" x1="0" y1="10.01" x2="23.18" y2="10.01" gradientUnits="userSpaceOnUse">
      <stop offset=".54" stop-color="#d392f4"/>
      <stop offset="1" stop-color="#a2c9f4"/>
    </linearGradient>
    <linearGradient id="_무제_그라디언트_131" data-name="무제 그라디언트 131" x1="9.53" y1="9.9" x2="36.83" y2="9.9" gradientUnits="userSpaceOnUse">
      <stop offset="0" stop-color="#c89cf3"/>
      <stop offset=".72" stop-color="#abc9f6"/>
    </linearGradient>
    <linearGradient id="_무제_그라디언트_144" data-name="무제 그라디언트 144" x1="31.72" y1="11.72" x2="39.37" y2="20.83" gradientUnits="userSpaceOnUse">
      <stop offset="0" stop-color="#aec1f5"/>
      <stop offset=".51" stop-color="#abc7f6"/>
      <stop offset=".79" stop-color="#bd9cf0"/>
    </linearGradient>
    <linearGradient id="_무제_그라디언트_147" data-name="무제 그라디언트 147" x1="41.38" y1="9.9" x2="68.48" y2="9.9" gradientUnits="userSpaceOnUse">
      <stop offset=".29" stop-color="#b9aaf2"/>
      <stop offset=".45" stop-color="#d392f4"/>
    </linearGradient>
    <linearGradient id="_무제_그라디언트_132" data-name="무제 그라디언트 132" x1="26.21" y1="13.96" x2="37.91" y2="13.96" gradientUnits="userSpaceOnUse">
      <stop offset="0" stop-color="#abc9f6"/>
      <stop offset=".72" stop-color="#abc9f6"/>
    </linearGradient>
  </defs>
  <path class="cls-5" d="M8.88,14.55c0-1.78.16-4.33.51-6.94-2.77,3.74-5.53,7.98-7.25,11.76-.27.61-.86.64-1.4.18-.39-.4-.74-1.01-.74-1.72,0-.46.19-1.2.51-1.84C2.53,11.88,7.48,4.58,10.44.71c.51-.68.97-.68,1.56-.31,1.17.68,1.71,1.32,1.71,2.43,0,.43-.08.92-.19,1.47-.55,2.49-.9,5.68-1.17,9.21,2.65-4.39,6.43-9.76,9-12.93.58-.64,1.05-.49,1.48.09.23.37.35.77.35,1.2,0,.74-.23,1.81-1.44,3.35-2.18,2.82-6.97,10.04-9.35,14.18-.23.37-.66.55-1.32.28-1.29-.52-1.91-1.32-2.06-2.89-.08-.89-.12-1.51-.12-2.24Z"/>
  <path class="cls-3" d="M17.43,15.68c.37-2.07,1.9-5.77,2.56-8.02-1.62,1.89-3.22,3.99-4.71,6-1.57,2.01-2.67,4.12-3.97,5.94-.27.22-.73.15-1.05-.08-1.21-.89-.69-2.64-.06-3.75,1.76-3.2,7.47-10.73,11.45-15.01.44-.52,1.14-.92,1.86-.53,2.52,1.29,1.85,3.61.94,5.53-1.1,2.53-2.02,4.93-2.91,7.59-.14.52.24-.03.43-.23,3.91-4.49,8.01-7.66,11.88-12.5.74-1.14,1.92-.45,2.5.4.7.96.58,1.98.08,3.03-2.78,4.57-6.83,10.46-9,15.37-.3.65-.97.41-1.44-.03-1.25-1.24-.5-3.12.12-4.46.94-2.05,2.49-4.29,3.6-6.38-.32.27-.85.86-1.2,1.21-2.77,2.89-5.9,6.37-8.05,9.41-.17.22-.39.46-.63.53-.81.11-1.53-.67-1.95-1.17-.58-.72-.65-1.86-.47-2.75l.02-.1Z"/>
  <path class="cls-4" d="M45.53,15.56c-1.31,1.64-4.27,2.38-6.92,3.45-7.45,15.61-19.05,4.18-3.09-.6l.47-.85c-13.6,3.57-.6-13.78,5.66-9.14.19.14.48.13.62-.06.84-1.15,2.49-.9,2.51.8.65,1.21-7.32,7.19-4.98,6.99,2.74-1.59,8.18-4.75,5.74-.58ZM31.06,22.69c-3.91,6.08,2.55.09,3.4-2.58-1.51.77-2.64,1.68-3.4,2.58ZM38.36,13.41c6.49-8.02-4.75-2.01-5.13,2.89.55,2.32,3.3-.79,5.13-2.89Z"/>
  <path class="cls-1" d="M49.07,15.67c.27-1.38,1.4-4.85,2.73-8.23-2.4,1.68-8.6,13.59-9.93,12.04-2.85-3.87,7.87-13.96,11.65-18.91.47-.49,1.09-.68,1.83-.21,4.15,3.43-1.52,8.22-2.34,13.45,4.09-4.88,8.26-7.89,12.58-13.29,1.15-1.57,3.06.98,2.88,2-1.79,5.34-7.42,11.44-9.39,16.85-1.5,1.72-2.74-2.02-1.83-3.32v.03c.47-1.44,2.38-4.67,4.29-7.74-3.43,3.47-7.21,7.61-9.51,10.9-1.78,1.65-3.66-2.04-2.96-3.56Z"/>
  <path class="cls-2" d="M36.57,8.34c.55-.38.98-.25,1.21.23.11.23.17.53.1.85-.11.54-1.83,1.95-1.83,1.95,0,0-5.9,5.43-8.51,8.18-.31.34-.61.35-1-.09-.25-.25-.41-.65-.31-1.16.06-.28.27-.74.59-1.19,2.04-2.48,7.01-6.9,9.75-8.78Z"/>
</svg>