<svg width="107" height="103" viewBox="0 0 107 103" fill="none" xmlns="http://www.w3.org/2000/svg">
<ellipse cx="53.5" cy="51.5" rx="53.5" ry="51.5" fill="white"/>
<path d="M53.5 0.5C82.7892 0.5 106.5 23.3513 106.5 51.5C106.5 79.6487 82.7892 102.5 53.5 102.5C24.2108 102.5 0.5 79.6487 0.5 51.5C0.5 23.3513 24.2108 0.5 53.5 0.5Z" stroke="#2E4F21" stroke-opacity="0.1"/>
<g clip-path="url(#clip0_130_4500)">
<path d="M28.88 52.55C28.88 50.77 29.04 48.22 29.39 45.61C26.62 49.35 23.86 53.59 22.14 57.37C21.87 57.98 21.28 58.01 20.74 57.55C20.35 57.15 20 56.54 20 55.83C20 55.37 20.19 54.63 20.51 53.99C22.53 49.88 27.48 42.58 30.44 38.71C30.95 38.03 31.41 38.03 32 38.4C33.17 39.08 33.71 39.72 33.71 40.83C33.71 41.26 33.63 41.75 33.52 42.3C32.97 44.79 32.62 47.98 32.35 51.51C35 47.12 38.78 41.75 41.35 38.58C41.93 37.94 42.4 38.09 42.83 38.67C43.06 39.04 43.18 39.44 43.18 39.87C43.18 40.61 42.95 41.68 41.74 43.22C39.56 46.04 34.77 53.26 32.39 57.4C32.16 57.77 31.73 57.95 31.07 57.68C29.78 57.16 29.16 56.36 29.01 54.79C28.93 53.9 28.89 53.28 28.89 52.55H28.88Z" fill="url(#paint0_linear_130_4500)"/>
<path d="M37.4302 53.68C37.8002 51.61 39.3302 47.91 39.9902 45.66C38.3702 47.55 36.7702 49.65 35.2802 51.66C33.7102 53.67 32.6102 55.78 31.3102 57.6C31.0402 57.82 30.5802 57.75 30.2602 57.52C29.0502 56.63 29.5702 54.88 30.2002 53.77C31.9602 50.57 37.6702 43.04 41.6502 38.76C42.0902 38.24 42.7902 37.84 43.5102 38.23C46.0302 39.52 45.3602 41.84 44.4502 43.76C43.3502 46.29 42.4302 48.69 41.5402 51.35C41.4002 51.87 41.7802 51.32 41.9702 51.12C45.8802 46.63 49.9802 43.46 53.8502 38.62C54.5902 37.48 55.7702 38.17 56.3502 39.02C57.0502 39.98 56.9302 41 56.4302 42.05C53.6502 46.62 49.6002 52.51 47.4302 57.42C47.1302 58.07 46.4602 57.83 45.9902 57.39C44.7402 56.15 45.4902 54.27 46.1102 52.93C47.0502 50.88 48.6002 48.64 49.7102 46.55C49.3902 46.82 48.8602 47.41 48.5102 47.76C45.7402 50.65 42.6102 54.13 40.4602 57.17C40.2902 57.39 40.0702 57.63 39.8302 57.7C39.0202 57.81 38.3002 57.03 37.8802 56.53C37.3002 55.81 37.2302 54.67 37.4102 53.78L37.4302 53.68Z" fill="url(#paint1_linear_130_4500)"/>
<path d="M65.5299 53.56C64.2199 55.2 61.2599 55.94 58.6099 57.01C51.1599 72.62 39.5599 61.19 55.5199 56.41L55.9899 55.56C42.3899 59.13 55.3899 41.78 61.6499 46.42C61.8399 46.56 62.1299 46.55 62.2699 46.36C63.1099 45.21 64.7599 45.46 64.7799 47.16C65.4299 48.37 57.4599 54.35 59.7999 54.15C62.5399 52.56 67.9799 49.4 65.5399 53.57L65.5299 53.56ZM51.0599 60.69C47.1499 66.77 53.6099 60.78 54.4599 58.11C52.9499 58.88 51.8199 59.79 51.0599 60.69ZM58.3599 51.41C64.8499 43.39 53.6099 49.4 53.2299 54.3C53.7799 56.62 56.5299 53.51 58.3599 51.41Z" fill="url(#paint2_linear_130_4500)"/>
<path d="M69.0701 53.67C69.3401 52.29 70.4701 48.82 71.8001 45.44C69.4001 47.12 63.2001 59.03 61.8701 57.48C59.0201 53.61 69.7401 43.52 73.5201 38.57C73.9901 38.08 74.6101 37.89 75.3501 38.36C79.5001 41.79 73.8301 46.58 73.0101 51.81C77.1001 46.93 81.2701 43.92 85.5901 38.52C86.7401 36.95 88.6501 39.5 88.4701 40.52C86.6801 45.86 81.0501 51.96 79.0801 57.37C77.5801 59.09 76.3401 55.35 77.2501 54.05V54.08C77.7201 52.64 79.6301 49.41 81.5401 46.34C78.1101 49.81 74.3301 53.95 72.0301 57.24C70.2501 58.89 68.3701 55.2 69.0701 53.68V53.67Z" fill="url(#paint3_linear_130_4500)"/>
<path d="M56.5699 46.34C57.1199 45.96 57.5499 46.09 57.7799 46.57C57.8899 46.8 57.9499 47.1 57.8799 47.42C57.7699 47.96 56.0499 49.37 56.0499 49.37C56.0499 49.37 50.1499 54.8 47.5399 57.55C47.2299 57.89 46.9299 57.9 46.5399 57.46C46.2899 57.21 46.1299 56.81 46.2299 56.3C46.2899 56.02 46.4999 55.56 46.8199 55.11C48.8599 52.63 53.8299 48.21 56.5699 46.33V46.34Z" fill="url(#paint4_linear_130_4500)"/>
</g>
<defs>
<linearGradient id="paint0_linear_130_4500" x1="20" y1="48.01" x2="43.18" y2="48.01" gradientUnits="userSpaceOnUse">
<stop offset="0.54" stop-color="#D392F4"/>
<stop offset="1" stop-color="#A2C9F4"/>
</linearGradient>
<linearGradient id="paint1_linear_130_4500" x1="29.5302" y1="47.9" x2="56.8302" y2="47.9" gradientUnits="userSpaceOnUse">
<stop stop-color="#C89CF3"/>
<stop offset="0.72" stop-color="#ABC9F6"/>
</linearGradient>
<linearGradient id="paint2_linear_130_4500" x1="51.7199" y1="49.72" x2="59.3699" y2="58.83" gradientUnits="userSpaceOnUse">
<stop stop-color="#AEC1F5"/>
<stop offset="0.51" stop-color="#ABC7F6"/>
<stop offset="0.79" stop-color="#BD9CF0"/>
</linearGradient>
<linearGradient id="paint3_linear_130_4500" x1="61.3801" y1="47.9" x2="88.4801" y2="47.9" gradientUnits="userSpaceOnUse">
<stop offset="0.29" stop-color="#B9AAF2"/>
<stop offset="0.45" stop-color="#D392F4"/>
</linearGradient>
<linearGradient id="paint4_linear_130_4500" x1="46.2099" y1="51.96" x2="57.9099" y2="51.96" gradientUnits="userSpaceOnUse">
<stop stop-color="#ABC9F6"/>
<stop offset="0.72" stop-color="#ABC9F6"/>
</linearGradient>
<clipPath id="clip0_130_4500">
<rect width="68.48" height="26.94" fill="white" transform="translate(20 38)"/>
</clipPath>
</defs>
</svg>
